<svg xmlns="http://www.w3.org/2000/svg" xmlns:xlink="http://www.w3.org/1999/xlink" width="155" height="240" viewBox="0 0 155 240">
    <defs>
        <path id="s11f90iupa" d="M0 0H155V240H0z"/>
    </defs>
    <g fill="none" fill-rule="evenodd">
        <g>
            <mask id="lzgtm93aub" fill="#fff">
                <use xlink:href="#s11f90iupa"/>
            </mask>
            <g mask="url(#lzgtm93aub)">
                <g>
                    <path fill="#89E0BF" d="M88.5 188c48.877 0 88.5-39.623 88.5-88.5S137.377 11 88.5 11 0 50.623 0 99.5 39.623 188 88.5 188z" transform="translate(0 96)"/>
                    <g>
                        <path fill="#7D4E45" fill-rule="nonzero" d="M33.007 107.868l-.235-.144 7.155-20.047 11.67 2.528 4.94 1.073c.36.413 7.371 10.31-.876 18.005-7.634 7.127-20.744-.272-22.654-1.415z" transform="translate(0 96) translate(14) matrix(-1 0 0 1 92.431 0)"/>
                        <path fill="#784338" fill-rule="nonzero" d="M117.59 60.724c-.776-9.824.445-13.873-1.885-18.53-.858-1.71-1.394-2.598-1.761-3.674-.266-.78-.44-1.662-.583-3.026.014.003-.405-6.436-.539-9.412-.096-2.131-.306-4.003-.59-6.675-.283-2.649-1.665-5.352-2.484-6.798C105.869 5.759 99.73 1.137 89.304.149 78.394-.883 72.663 2.264 72.11 9.59c-7.324-1.485-12.908 2.099-16.752 10.75-3.761 8.461.322 11.948-2.129 20.701-1.567 5.595-7.452 7.64-9.892 17.464-1.663 6.524.885 8.032.531 15.902-.012.309-.029.626-.053.956-.673 9.544-8.706 7.94-9.758 23.297-.762 11.149 5.547 17.435 18.925 18.86l8.153.127c10.755.17 28.406.458 28.943.52.21.025 2.833-2.33 6.565-5.794 1.464-1.357 3.097-2.883 4.821-4.504 6.26-5.884 13.717-13.003 18.59-17.663 2.085-1.993 3.814-3.65 5.189-4.97 2.062-3.571 2.322-6.898.78-9.98-2.318-4.626-7.654-4.713-8.434-14.532z" transform="translate(0 96) translate(14) matrix(-1 0 0 1 160.892 0)"/>
                        <path fill="#5E3128" fill-rule="nonzero" d="M69.606 109.283c-7.633 7.127-20.744-.272-22.654-1.415-1.724 1.62-3.356 3.147-4.82 4.504l-4.46-1.452-4.899-68.582 18.398-14.286c1.017 2.972 2.304 5.373 3.86 7.204 1.092 1.287 2.833 2.409 4.4 3.262.367 1.076.902 1.963 1.76 3.675 2.33 4.656 1.11 8.706 1.885 18.529.78 9.82 6.116 9.906 8.434 14.533 1.542 3.082 1.282 6.409-.78 9.98-1.374 1.32-3.104 2.976-5.188 4.97l4.942 1.073c.358.412 7.37 10.31-.878 18.005z" transform="translate(0 96) translate(14) matrix(-1 0 0 1 106.377 0)"/>
                        <g fill-rule="nonzero">
                            <path fill="#FDC" d="M5.105 12.999c-.604-2.176 1.452-6.89 4.595-8.1s8.584-3.022 8.946-.968c.363 2.056-4.836 3.144-5.078 4.353-.241 1.21 3.144 1.45 4.353 4.715 1.21 3.264-.121 7.375-.605 7.737-.322.242-1.329.444-3.022.605-5.723-4.11-8.785-6.891-9.189-8.342z" transform="translate(0 96) translate(14) translate(25.89 25.244) scale(-1 1) rotate(-36.495 28.14 65.927)"/>
                            <path fill="#FDC" d="M9.011 8.692c.167-1.617 2.78-1.853 3.59 1.852.81 3.706 2.2 9.958 3.59 10.769 1.39.81.145-14.257.926-16.327.526-1.394 3.242-2.2 3.59 3.937.348 6.137-.116 8.22 1.273 9.379 1.39 1.158 4.17.926 4.98 2.779.81 1.852 3.242 2.084 4.052 4.515.81 2.432.81 9.264 0 11.58-.54 1.543-1.634 2.714-3.281 3.511l-4.709 1.004-11.093-13.482C9.834 16.646 8.862 10.14 9.01 8.692z" transform="translate(0 96) translate(14) translate(25.89 25.244) scale(-1 1) rotate(-36.495 0 84.455)"/>
                            <path fill="#F4C9B3" d="M2.027 6.374c-.22.748.948 1.067 1.166.32.485-1.649.97-3.299 1.453-4.948C4.866.998 3.7.679 3.48 1.424l-1.453 4.95z" transform="translate(0 96) translate(14) translate(25.89 25.244) scale(-1 1) rotate(-36.495 22.118 38.533)"/>
                            <path fill="#F4C9B3" d="M16.422 14.411c.378-.681-.666-1.291-1.044-.61-.536.967-.477 1.997-.046 2.82h-.002c-1.385.928-3.323.72-4.394-.586 2.146-.365 4.11-1.46 3.415-4.017-.317-1.173-1.26-1.756-2.374-1.905.008-.03.017-.06.021-.092l.818-6.446c.098-.77-1.112-.763-1.209 0l-.818 6.446c-.002.016 0 .03-.001.047-2.05.036-4.203.49-6.21.703-.767.081-.774 1.291 0 1.21 2.08-.221 4.385-.778 6.471-.68.65.03 1.788.44 2.136 1.04.595 1.02-.81 2.035-1.494 2.377-1.19.595-2.706.34-3.968.183-.77-.096-.764 1.114 0 1.21.555.068 1.24.098 1.96.061-.009.112.022.235.113.358 1.421 1.917 4.126 2.488 6.143 1.136.057-.038.1-.082.139-.128.687.566 1.634.83 2.663.538.747-.215.43-1.381-.32-1.167-1.517.433-2.775-1.098-1.999-2.498z" transform="translate(0 96) translate(14) translate(25.89 25.244) scale(-1 1) rotate(-36.495 19.423 61.955)"/>
                            <path fill="#F4C9B3" d="M2.143 2.062c1.09 1.359 1.298 3.108.693 4.72-.274.728.894 1.043 1.166.32.765-2.038.345-4.213-1.004-5.895-.487-.606-1.337.253-.855.855z" transform="translate(0 96) translate(14) translate(25.89 25.244) scale(-1 1) rotate(-36.495 41.195 39.036)"/>
                        </g>
                        <path fill="#33C28A" d="M44.907 33.843H55.82c1.325 0 2.4 1.074 2.4 2.4v21.331c0 1.326-1.075 2.4-2.4 2.4H44.907c-1.325 0-2.4-1.074-2.4-2.4V36.243c0-1.326 1.075-2.4 2.4-2.4z" transform="translate(0 96) translate(14) scale(-1 1) rotate(-34.261 0 210.307)"/>
                        <path fill="#5E3128" fill-rule="nonzero" d="M100.688 117.647l-8.154-.128c-13.378-1.424-19.686-7.71-18.925-18.859 1.051-15.357 9.085-13.753 9.758-23.297.025-.33.042-.647.054-.956l.082-.037c1.023-5.868 2.313-10.154 3.872-12.859 2.334-4.059 5.085-2.264 13.49-7.329h.004l8.99-14.595 1.06.772c3.283 2.384 13.074 9.539 13.345 10.22.327.816 2.974 30.39 2.574 30.661-.268.182-15.77 22.233-26.15 36.407z" transform="translate(0 96) translate(14) matrix(-1 0 0 1 200.441 0)"/>
                        <g fill="#FDC" fill-rule="nonzero">
                            <path d="M34.693 44.435c-2.952 3.452-5.559 6.496-8.054 6.496-4.548 0-16.286-3.196-19.354-7.403C4.212 39.318.12 29.424.006 24.306-.109 19.192 1.372 9.98 3.533 8.387 5.693 6.796 8.08 4.75 15.129 3.158 22.181 1.567 25.48-1.163 29.002.54c2.35 1.138 5.611 5.156 9.782 12.054.341 1.625.646 3.598.916 5.918.066.594.131 1.217.19 1.865.235 2.58.367 5.536.202 8.424-.454 7.844-1.56 11.142-5.399 15.634z" transform="translate(0 96) translate(14) translate(54.615 10.58) matrix(-1 0 0 1 40.165 0)"/>
                        </g>
                        <g fill="#FDC" fill-rule="nonzero">
                            <path d="M20.905 26.477c.177.941.195 2.192-.125 3.43-.727 2.827-3.19 5.587-9.447 4.442-.062-.009-.124-.022-.19-.035C1.97 32.538-.727 23.85.16 22.187.75 21.077.75 13.682.16 0l21.632 13.014c-.13.923-.27 2.02-.418 3.292-.16 1.376-.332 3.023-.452 4.62-.173 2.25-.234 4.398-.017 5.551z" transform="translate(0 96) translate(14) translate(68.705 47.854) matrix(-1 0 0 1 21.792 0)"/>
                        </g>
                        <g fill="#FDC" fill-rule="nonzero">
                            <path d="M17.863 4.337C13.472 5.33 4.256 4.03.43 12.812-3.394 21.595 19.472 30.52 21.355 26.41c1.255-2.739 3.68-10.246 7.277-22.524L25.1 0c-1.898 2.23-4.31 3.676-7.238 4.337z" transform="translate(0 96) translate(14) translate(86.483 67.518) matrix(-1 0 0 1 28.632 0)"/>
                        </g>
                        <path fill="#FDC" fill-rule="nonzero" d="M36.962 94.072l-23.53-12.29.288-.57 3.527-6.973 3.94-7.79c.045.695.617 1.33 1.716 1.909.706.374 1.696.71 3.098.922.893.136 1.67.178 2.385.166 3.042-.051 4.985-1.08 9.8-.166 5.95 1.135 11.768 6.233 18.912 11.189 5.95 4.126 18.77 8.645 21.176 16.154 2.411 7.505-.28 12.75-11.33 10.624-7.365-1.416-17.36-5.808-29.982-13.175z" transform="translate(0 96) translate(14) matrix(-1 0 0 1 92.521 0)"/>
                        <path fill="#F4C9B3" fill-rule="nonzero" d="M83.003 69.28c-1.403-.213-2.324-.53-3.03-.904.115-1.53.264-2.79.417-4.107l.343-2.76c-1.822-.02-4.53-1.06-8.122-3.116-2.443-1.4-4.292-2.737-5.582-3.775-.904-1.105-1.65-2.336-2.2-3.673-.27-.65-1.343-.366-1.07.295.328.795.715 1.546 1.15 2.262.366 2.83 1.572 11.758 3.986 15.849 2.512 4.257 5.447 7.515 8.806 9.774l2.07-2.167 6.039-6.333-.423-1.18c-.714.013-1.492-.03-2.384-.166z" transform="translate(0 96) translate(14) matrix(-1 0 0 1 149.524 0)"/>
                        <g fill="#FEC72E" fill-rule="nonzero">
                            <path d="M64.44 46.498c-.533 2.396-1.073 4.301-1.073 5.769.005 5.53-.862 21.569-.862 24.546 0 .094-.05.185-.136.276h-44.52l-5.04-31.916-3.876-24.558C2.131 10.835-.802 5.69.133 5.182c4.09-2.224 8.205-3.176 12.343-2.856 6.907 4.223 13.035 6.003 18.385 5.34 5.35-.66 8.725-2.816 10.124-6.468C43.84.162 46.355-.212 48.528.076c3.258.429 8.355 2.334 9.49 6.726 1.133 4.392-3.391 11.609-.273 15.436 3.118 3.823 7.407 7.275 7.692 14.64.15 3.834-.42 7.018-.997 9.615v.005z" transform="translate(0 96) translate(14) translate(40.874 68.213) matrix(-1 0 0 1 65.461 0)"/>
                        </g>
                        <path fill="#F1B81A" fill-rule="nonzero" d="M92.468 125.884c.423 5.514 1.059 16.442 1.059 19.419h-48.07l-5.04-31.916c.694-.087 1.424-.182 1.626-.252.275-.093.742-1.465 1.402-4.116h1.757c.125 2.789 2.89 5.558 8.295 8.307 8.104 4.124 13.289 1.113 25.525 1.443 8.158.22 12.5-1.133 13.025-4.058-.532 2.396.156 7.72.42 11.173z" transform="translate(0 96) translate(14) matrix(-1 0 0 1 133.945 0)"/>
                        <g fill="#FDC" fill-rule="nonzero">
                            <path d="M14.927 67.33h16.987c.077-5.68-2.282-14.13-3.942-20.33-2.844-10.624-7.43-26.934-5.547-31.042C24.307 11.85 5.325-6.424 1.5 2.358c-3.824 8.784.773 23.941 1.59 26.491.82 2.55 5.259 24.65 10.405 35.699.472 1.014.95 1.938 1.432 2.782z" transform="translate(0 96) translate(14) translate(84.27 77.971) matrix(-1 0 0 1 31.916 0)"/>
                        </g>
                        <g fill="#FEC72E" fill-rule="nonzero">
                            <path d="M1.493 15.23C1.28 29.156-1.09 32.467.61 35.867c1.7 3.4 4.303 2.745 11.89 3.382 7.586.638 11.687.776 14.496 1.521 2.883.765 4.564-12.783 4.351-14.27-.142-.992-2.727-7.403-7.756-19.231L16.385 0C6.599.867 1.635 5.944 1.493 15.23z" transform="translate(0 96) translate(14) translate(87.467 71.856) matrix(-1 0 0 1 31.365 0)"/>
                        </g>
                        <g fill="#FEC72E" fill-rule="nonzero">
                            <path d="M21.993 4.675c6.8 4.674 8.075 5.311 9.35 6.374 1.274 1.063-.32 5.293-.638 7.746-.318 2.454-.85 5.642-1.487 8.297-.637 2.656-2.229 8.46-3.909 8.407-2.795-.088-9.053 3.28-9.372 3.28-.212 0-5.525-9.278-15.937-27.836L5.667 0c6.35 0 11.793 1.558 16.326 4.675z" transform="translate(0 96) translate(14) translate(31.647 68.289) matrix(-1 0 0 1 31.83 0)"/>
                        </g>
                        <g fill="#FDC" fill-rule="nonzero">
                            <path d="M17.913 24.624c3.683-8.358 6.056-16 6.509-17.807.449-1.793.856-3.399 1.222-4.817 1.33 7.843 10.348 2.38 10.348 3.37 0 .992-.432 8.246-2.273 22.27-1.841 14.025-2.78 22.774-6.128 24.508-3.281 1.7-8.145 1.555-14.591-.435l1.202-15.857c.018-1.916 1.255-5.66 3.71-11.232z" transform="translate(0 96) translate(14) translate(.965 53.997) scale(-1 1) rotate(-36.495 0 101.887)"/>
                        </g>
                        <path fill="#784338" fill-rule="nonzero" d="M71.695 27.275c-.375.211-.41.799-.063 1.035.174.119.623.131.938.005.573-.23 1.198-.261 1.808-.263.623-.002 1.248-.042 1.873-.048 1.223-.012 2.45.035 3.661.208.658.094 1.614-1.625.62-1.934-3.035-.943-6.04-.575-8.837.997z" transform="translate(0 96) translate(14) matrix(-1 0 0 1 152.353 0)"/>
                        <path fill="#784338" fill-rule="nonzero" d="M61.772 30.754c-.02-.025-.041-.045-.062-.07-1.851-1.3-3.74-1.448-6.123-1.336-.664.029-.738-.545-.677-1.027.054-.412.013-.878.483-.981 2.322-.504 4.698.152 6.496 1.752.064.594.13 1.217.189 1.864-.107-.03-.21-.095-.306-.202z" transform="translate(0 96) translate(14) matrix(-1 0 0 1 116.97 0)"/>
                        <path fill="#FFF" fill-rule="nonzero" d="M68.533 47.728c2.705.34 5.769-.297 5.794.212.032.614-.701 2.384-3.053 3.689-.986.546-3.052.686-5.157-.456-1.466-.795-3.78-3.399-2.984-3.997.584-.439 2.695.212 5.4.552z" transform="translate(0 96) translate(14) matrix(-1 0 0 1 137.3 0)"/>
                        <path fill="#784338" fill-rule="nonzero" d="M94.262 24.46c-.549-.12-1.094-.257-1.64-.388-1.786-2.885-4.304-6.849-4.998-7.405-1.11-.887.256-7.751-5.408-7.64-5.664.111-13.42-2.665-14.308-1.886-.512.45-1.09 3.786-1.487 6.52-1.527.004-2.763.057-3.095.206-1.043.463-6.947 1.89-7.44 2.445-.492.554-3.278 8.518-3.5 9.148-.147.42.371 2.65 1.554 6.692.704 1.123 3.7-.364 8.99-4.46 4.56-3.53 7.506-7.284 9.253-9.99 5.413 2.718 11.054 4.896 16.874 6.515 1.622 1.56 2.534 2.84 2.735 3.837l2.7-.92c-.295-.493-.665-1.1-1.107-1.822.201.045.4.097.603.142.647.142.922-.852.274-.994z" transform="translate(0 96) translate(14) matrix(-1 0 0 1 147 0)"/>
                        <path fill="#784338" fill-rule="nonzero" d="M100.308 40.359c1.41 4.965 3.642 11.613 2.924 16.74-1.11 7.913-3.155 10.046-3.415 10.421-.173.25-2.394.5-6.664.747-.874-4.226-1.841-8.92-2.9-14.084-2.486-12.133-5.65-27.717-5.514-27.796.223-.128 7.618-3.369 7.84-3.373.17 0 4.343 1.022 12.516 3.068-3.23 3.191-5.15 5.917-5.76 8.178-.322 1.191.206 3.398.973 6.099z" transform="translate(0 96) translate(14) matrix(-1 0 0 1 189.83 0)"/>
                        <path fill="#5E3128" fill-rule="nonzero" d="M96.024 67.52c-.173.25-2.394.5-6.664.747-.874-4.226-1.84-8.92-2.9-14.084h.005l8.99-14.595 1.06.772c1.41 4.965 3.642 11.612 2.924 16.739-1.11 7.914-3.154 10.046-3.415 10.421z" transform="translate(0 96) translate(14) matrix(-1 0 0 1 186.039 0)"/>
                        <g fill="#FDC" fill-rule="nonzero">
                            <path d="M5.828 12.26c-2.292.54-4.792-1.748-5.585-5.112C-.551 3.784.663.62 2.954.08S7.746 1.828 8.54 5.191c.794 3.364-.421 6.53-2.711 7.07z" transform="translate(0 96) translate(14) translate(84.84 29.926) matrix(-1 0 0 1 8.782 0)"/>
                        </g>
                        <path fill="#F4C9B3" fill-rule="nonzero" d="M87.722 31.468c-.605-.414-1.176.57-.574.981.978.668 1.696 1.564 2.064 2.699.4 1.237.537 3.765-1.447 3.922-.725.057-.731 1.195 0 1.137 2.04-.162 2.906-1.961 2.813-3.86-.1-2.03-1.205-3.753-2.856-4.88z" transform="translate(0 96) translate(14) matrix(-1 0 0 1 177.477 0)"/>
                        <g fill="#F4C9B3" fill-rule="nonzero">
                            <path d="M5.982.677c.23-.677-.84-.968-1.07-.295-1.303 3.817-1.21 7.79.282 11.537.261.654 1.335.369 1.07-.296-1.43-3.589-1.53-7.29-.282-10.946z" transform="translate(0 96) translate(14) translate(22.135 90.305) scale(-1 1) rotate(-36.495 0 21.773)"/>
                        </g>
                        <path fill="#F1B81A" d="M92.996 89.1c-.974-7.07 2.917-13.56 9.67-15.913.674-.236.965.836.294 1.07-6.007 2.093-9.637 7.871-8.937 14.173 3.479-4.697 8.566-7.66 14.377-8.373.523-.064.667.626.392.948-3.81 4.445-8.732 7.617-14.344 9.276-.294.088-.516-.06-.62-.274-5.032 5.423-6.625 13.267-4.113 20.241.242.673-.83.963-1.07.295-2.64-7.33-.898-15.628 4.384-21.316-.015-.038-.026-.08-.033-.128zm2.024-.161c4.566-1.503 8.597-4.062 11.904-7.528-4.759.953-8.979 3.614-11.904 7.528z" transform="translate(0 96) translate(14)"/>
                        <path fill="#F1B81A" fill-rule="nonzero" d="M112.29 96.368c0-.714-1.109-.715-1.11 0-.005 4.205 1.687 8.068 4.796 10.9.527.48 1.314-.303.785-.785-2.91-2.65-4.477-6.178-4.471-10.115z" transform="translate(0 96) translate(14) matrix(-1 0 0 1 228.117 0)"/>
                        <path fill="#F1B81A" fill-rule="nonzero" d="M54.974 88.101l5.464-7.075c.436-.565-.527-1.118-.958-.56l-6.763 8.758c-.173.223-.124.444.022.596l-.726.558c-2.027-9.013-7-16.524-15.274-20.67-.637-.319-1.2.637-.56.958 8.192 4.105 13.017 11.53 14.88 20.498-.075.222-.03.486.224.648 3.76 2.393 6.608 6.795 7.443 11.168.134.7 1.203.404 1.07-.295-.835-4.365-3.642-8.795-7.238-11.338 3.998-3.074 7.997-6.148 11.994-9.223.559-.43.007-1.394-.56-.958L54.974 88.1z" transform="translate(0 96) translate(14) matrix(-1 0 0 1 100.682 0)"/>
                        <path fill="#F1B81A" fill-rule="nonzero" d="M63.944 72.936c-.518-.49-1.304.292-.785.785 8.58 8.125 21.812 8.227 30.523.248.528-.482-.258-1.265-.783-.784-8.26 7.564-20.827 7.45-28.955-.25z" transform="translate(0 96) translate(14) matrix(-1 0 0 1 156.846 0)"/>
                        <g fill="#332D2D" fill-rule="nonzero">
                            <path d="M.452.804c2.454-1.277 5.41-1.066 7.39.875.437.43-.274 1.234-.752 1.09-.092.005-.19-.01-.291-.062-1.936-.982-4.043-1.148-6.116-.525-.598.18-.897-.612-.508-.953.002-.164.083-.324.277-.425z" transform="translate(0 96) translate(14) translate(71.315 32.832) matrix(-1 0 0 1 7.978 0)"/>
                        </g>
                        <g fill="#332D2D" fill-rule="nonzero">
                            <path d="M6.243.913c.321.196.345.547.208.807.055.397-.228.828-.699.653-.75-.28-1.543-.445-2.343-.462-.397-.008-.853-.07-1.245-.008-.175.027-1.535.187-1.767-.002-.211-.172-.31-.412-.382-.72C-.045.932.08.729.302.618c1.945-.899 4.099-.829 5.94.296z" transform="translate(0 96) translate(14) translate(56.396 34.422) matrix(-1 0 0 1 6.53 0)"/>
                        </g>
                        <path fill="#663A32" fill-rule="nonzero" d="M13.425 129.31c.088.054.12.09.088.098-.015.01-.048-.027-.088-.098z" transform="translate(0 96) translate(14) matrix(-1 0 0 1 26.95 0)"/>
                        <path fill="#5E3128" fill-rule="nonzero" d="M77.078 9.827c-.662-.05-.658.98 0 1.03 3.88.296 7.294 1.992 9.91 4.864.448.492 1.175-.239.728-.729-2.796-3.07-6.5-4.85-10.638-5.165z" transform="translate(0 96) translate(14) matrix(-1 0 0 1 164.44 0)"/>
                        <path fill="#F4C9B3" fill-rule="nonzero" d="M64.555 38.226c-.753-2.056-.396-4.04 1.094-5.678.445-.49-.282-1.222-.73-.73-1.145 1.26-1.84 2.778-1.815 4.505.03 1.926 3.303 6.756.478 7.646-.632.198-.361 1.194.273.993 1.635-.513 2.23-1.978 1.936-3.618-.2-1.116-.852-2.069-1.236-3.118z" transform="translate(0 96) translate(14) matrix(-1 0 0 1 128.967 0)"/>
                    </g>
                </g>
            </g>
        </g>
    </g>
</svg>
