
<svg width="1200px" height="736px" viewBox="0 0 1200 736" version="1.1" xmlns="http://www.w3.org/2000/svg" xmlns:xlink="http://www.w3.org/1999/xlink">
    <!-- Generator: Sketch 50 (54983) - http://www.bohemiancoding.com/sketch -->
    <desc>Created with Sketch.</desc>
    <defs>
        <rect id="path-1" x="3.75308135" y="1.0243563" width="1298.02999" height="700.14753"></rect>
        <linearGradient x1="50%" y1="2.80014349%" x2="50%" y2="109.575807%" id="linearGradient-3">
            <stop stop-color="#68BF8A" offset="0%"></stop>
            <stop stop-color="#2A8761" offset="100%"></stop>
        </linearGradient>
        <rect id="path-4" x="1.61110893" y="0" width="1303.09701" height="700.267846"></rect>
    </defs>
    <g id="Расставить-пробелы-Copy" stroke="none" stroke-width="1" fill="none" fill-rule="evenodd">
        <g id="BG">
            <g id="BG_2" transform="translate(-95.000000, 0.000000)">
                <g id="Group">
                    <mask id="mask-2" fill="white">
                        <use xlink:href="#path-1"></use>
                    </mask>
                    <use id="Mask" fill="#D8D8D8" xlink:href="#path-1"></use>
                    <g>
                        <mask id="mask-5" fill="white">
                            <use xlink:href="#path-4"></use>
                        </mask>
                        <use id="Mask" fill="url(#linearGradient-3)" xlink:href="#path-4"></use>
                        <polygon id="Path-26-Copy" fill="#335149" opacity="0.0778419384" points="425.189027 564.828181 428.903217 543.219909 439.654262 536.049865 441.284583 526.565043 608.247495 527.089195 626.33411 546.34378 692.651699 563.813793"></polygon>
                        <polygon id="Path-26-Copy-2" fill="#335149" opacity="0.0778419384" points="163.427392 564.066704 168.030061 428.235933 189.739705 401.319526 196.876078 373.339162 232.598739 372.355476 268.476185 352.335067 346.776946 350.133923 358.587181 411.611224 346.776946 562.382358"></polygon>
                        <polygon id="Path-26-Copy-3" fill="#335149" opacity="0.0778419384" points="854.478109 561.624618 869.060909 525.382062 898.080143 516.83099 903.466884 508.717622 930.431384 508.432386 957.512718 502.627139 1097.47768 501.100758 1106.39239 518.927113 1161.28973 561.614711"></polygon>
                        <polygon id="Path-26" fill="#335149" opacity="0.2" points="723.313758 563.988176 746.881166 550.962984 773.18897 549.334835 789.083268 545.380759 876.227868 545.845944 903.083751 563.52299"></polygon>
                        <g id="Group-5" transform="translate(473.733912, 441.987238)">
                            <polygon id="Path-28-Copy-2" fill="#397D5F" points="99.7504227 0 41.4842949 0 41.4842949 8.95019649 32.2270596 13.6885358 28.4152569 24.1904692 19.1580216 33.5008903 18.6155319 75.8194926 15.8907621 81.0782506 15.3462189 118.458483 88.3150144 118.357658"></polygon>
                            <polygon id="Path-28" fill="#327457" points="99.7504227 0 57.2211727 0 55.011861 13.1620537 41.7559909 27.9035538 40.0990071 47.9098753 32.9187441 54.7541432 28.5001208 118.458483 99.7504227 118.348624"></polygon>
                            <polygon id="Path-28-Copy" fill="#327457" points="100.426776 0 87.0163262 0 84.8706542 13.1038145 81.6521463 41.9322064 87.5527441 74.4296663 81.1157283 104.830516 105.790956 104.830516 106.327374 32.4974599 101.387478 23.2865293"></polygon>
                            <polygon id="Path-28-Copy-3" fill="#397D5F" points="66.8656679 18.8694929 54.8079245 55.4686547 53.1636868 80.3284628 48.2309736 105.188271 60.8367962 105.878821"></polygon>
                            <polygon id="Path-28-Copy-5" fill="#397D5F" points="89.8849962 68.6639879 81.1157283 79.1470395 79.4714906 98.0165324 74.5387774 116.886025 87.1446 117.410178"></polygon>
                            <polygon id="Path-18-Copy-7" fill="#397D5F" points="105.779294 102.733906 127.154385 119.506788 0 119.506788 15.8942981 103.931969"></polygon>
                        </g>
                        <rect id="Rectangle-16-Copy" fill="#368462" x="1.13391292" y="561.891565" width="1300.76293" height="174.018656"></rect>
                        <polygon id="Path-38" fill="#327457" points="789.083268 257.358917 757.294672 247.92417 790.179426 251.593238 820.323785 247.400018"></polygon>
                        <g id="Group-6" transform="translate(764.051362, 517.470655)">
                            <g id="Group-7">
                                <polygon id="Path-31" fill="#327457" points="65.6442342 57.343983 66.6464362 41.4418701 69.6530424 34.6955191 68.1497393 11.565173 64.9509028 9.43828855 62.8553668 4.04498081 58.1404109 3.27450827 58.1496534 0 24.2638391 0 22.6814148 2.18609978 18.8835965 4.0078496 16.6682025 6.55829935 9.38905077 7.65134924 9.14150321 22.9540477 8.37143155 24.0772667 8.37143155 33.1323679 3.83655472 57.343983"></polygon>
                                <polygon id="Path-28-Copy-3" fill="#397D5F" points="40.8084147 15.7245774 34.9720616 33.5618681 34.1761952 45.6777637 31.7885962 57.7936592 37.8902381 58.1302119"></polygon>
                                <polygon id="Path-28-Copy-4" fill="#397D5F" points="12.5538993 7.28699928 9.38905077 7.65134924 0 31.8042259 0 42.4056345 2.0044041 44.8150456 2.0044041 57.343983 12.0264246 57.343983 17.0374348 29.876697"></polygon>
                            </g>
                        </g>
                        <g id="Group-6-Copy" transform="translate(933.745810, 523.836727)">
                            <g id="Group-7">
                                <polygon id="Path-31" fill="#327457" points="25.7254431 39.4239883 26.118198 28.4912857 27.2964626 23.8531694 26.7073303 7.95105647 25.4537322 6.48882338 24.6325086 2.78092431 22.7847556 2.25122444 22.7883777 0 9.5088018 0 8.88866255 1.5029436 7.40032836 2.7553966 6.53213341 4.5088308 3.67949287 5.2603026 3.58248099 15.7809078 3.28069615 16.5531209 3.28069615 22.7785029 1.50351469 39.4239883"></polygon>
                                <polygon id="Path-28-Copy-3" fill="#397D5F" points="15.9924868 10.810647 13.7052674 23.0737843 13.3933738 31.4034625 12.4576931 39.7331407 14.8488771 39.9645207"></polygon>
                                <polygon id="Path-28-Copy-4" fill="#397D5F" points="4.91977137 5.009812 3.67949287 5.2603026 0 21.8654053 0 29.1538737 0.785509714 30.8103438 0.785509714 39.4239883 4.71305828 39.4239883 6.67683257 20.5402292"></polygon>
                            </g>
                        </g>
                        <g id="Group-6-Copy" transform="translate(149.149485, 545.663257)">
                            <g id="Group-7">
                                <polygon id="Path-31" fill="#327457" points="25.7254431 17.9199947 26.118198 12.9505844 27.2964626 10.8423497 26.7073303 3.61411658 25.4537322 2.94946517 24.6325086 1.2640565 22.7847556 1.02328384 22.7883777 0 9.5088018 0 8.88866255 0.683156182 7.40032836 1.252453 6.53213341 2.04946855 3.67949287 2.39104664 3.58248099 7.17313991 3.28069615 7.52414585 3.28069615 10.353865 1.50351469 17.9199947"></polygon>
                                <polygon id="Path-28-Copy-3" fill="#397D5F" points="15.9924868 4.91393043 13.7052674 10.4880838 13.3933738 14.2743011 12.4576931 18.0605185 14.8488771 18.1656912"></polygon>
                                <polygon id="Path-28-Copy-4" fill="#397D5F" points="4.91977137 2.27718727 3.67949287 2.39104664 0 9.93882059 0 13.2517608 0.785509714 14.0047017 0.785509714 17.9199947 4.71305828 17.9199947 6.67683257 9.33646782"></polygon>
                            </g>
                        </g>
                        <path d="M443.613027,681.732919 C514.968806,676.956373 553.819011,677.026698 646.788988,653.495593 C739.758965,629.964488 794.600805,601.727161 794.600805,601.727161 L1301.85254,602.016488 L1298.34255,660.010971 L1298.34255,710.783232 L0.00484435544,712.259294 L0.00484435544,687.19644 C0.00484435544,687.19644 372.257248,686.509465 443.613027,681.732919 Z" id="Path-26" fill="#347D5D" opacity="0.697973279" transform="translate(650.928692, 656.993227) scale(-1, 1) translate(-650.928692, -656.993227) "></path>
                    </g>
                </g>
            </g>
        </g>
    </g>
</svg>
