
<svg width="2426px" height="1369px" viewBox="0 0 2426 1369" version="1.1" xmlns="http://www.w3.org/2000/svg" xmlns:xlink="http://www.w3.org/1999/xlink">
    <!-- Generator: Sketch 50.2 (55047) - http://www.bohemiancoding.com/sketch -->
    <desc>Created with Sketch.</desc>
    <defs>
        <linearGradient x1="51.6393781%" y1="0%" x2="51.6393781%" y2="107.38392%" id="linearGradient-1">
            <stop stop-color="#B3504F" offset="0%"></stop>
            <stop stop-color="#D06E6D" offset="100%"></stop>
        </linearGradient>
    </defs>
    <g id="Symbols" stroke="none" stroke-width="1" fill="none" fill-rule="evenodd">
        <g id="BG">
            <g id="Group-8">
                <g id="Group-3">
                    <g transform="translate(-92.000000, 0.000000)">
                        <rect id="Rectangle-86-Copy-2" fill="url(#linearGradient-1)" x="91.835296" y="0" width="2426.03366" height="1367.46539"></rect>
                        <g id="Group-7" opacity="0.369791667" transform="translate(810.163870, 983.406498)">
                            <polygon id="Path-21-Copy-3" fill="#B45251" points="-1.13686838e-13 885.168943 700.180454 882.301771 598.690168 381.784873 481.822567 306.04203 372.935741 97.317144 232.710048 1.13686838e-13 55.3583375 266.123504"></polygon>
                            <g id="Group-5" transform="translate(342.130120, 51.177597)" fill="#CE6160">
                                <g id="Group-4-Copy">
                                    <g id="Group-17-Copy-2" transform="translate(17.158628, 12.049287) scale(-1, 1) rotate(-280.000000) translate(-17.158628, -12.049287) translate(7.658628, -3.450713)">
                                        <polygon id="Path-4" points="17.2176291 4.64760802 11.5421519 -6.91890989e-13 7.3196457 2.99655274 -1.45949919e-12 12.1509632 1.90346598 24.8730637 7.50844757 30.70223 9.71976101 30.4572918 18.602739 12.4119357"></polygon>
                                    </g>
                                    <g id="Group-17-Copy-3" transform="translate(25.735795, 22.184503) scale(-1, 1) rotate(-280.000000) translate(-25.735795, -22.184503) translate(22.235795, 14.684503)">
                                        <polygon id="Path-4" points="5.61548879 2.25683199 3.76444539 1.95399252e-14 2.38728504 1.45509605 1.29674049e-12 5.90038625 0.620810905 12.0781111 2.44886233 14.9086959 3.17007695 14.7897564 6.06723908 6.02711188"></polygon>
                                    </g>
                                    <polyline id="Path-21-Copy-6" transform="translate(18.929594, 25.784586) rotate(7.000000) translate(-18.929594, -25.784586) " points="17.6470131 32.1711581 16.9233287 28.4526882 18.9639777 24.2239183 20.6021162 19.4102318 20.9358584 19.3980132 19.8587418 24.992975"></polyline>
                                    <polygon id="Path-21-Copy-5" transform="translate(15.931135, 30.823447) rotate(-13.000000) translate(-15.931135, -30.823447) " points="14.784325 43.6542941 11.1307177 42.1442828 16.0329802 27.9228129 19.1777551 17.9925991 20.7315521 18.1700532 17.8921312 28.6495726"></polygon>
                                </g>
                            </g>
                        </g>
                        <g id="Group-7-Copy" opacity="0.369791667" transform="translate(0.000000, 318.317836)">
                            <polygon id="Path-21-Copy-3" fill="#B45251" points="0.616046927 1047.42573 918.45194 1047.42573 881.540606 550.443115 495.057398 306.04203 386.170572 97.317144 245.94488 -1.13686838e-13 68.5931687 266.123504"></polygon>
                            <g id="Group-2" transform="translate(320.194703, 266.746790)" fill="#9E4241">
                                <polygon id="Path-4" transform="translate(29.142106, 21.290209) scale(-1, 1) rotate(-280.000000) translate(-29.142106, -21.290209) " points="42.8644797 2.73630483 33.0263716 -5.32005206 25.7069039 -0.125703001 13.0187259 15.7429325 16.3182729 37.7959503 26.0341809 47.9004693 29.8673635 47.4758833 45.2654867 16.1953131"></polygon>
                                <polygon id="Path-4" transform="translate(44.266994, 38.433158) scale(-1, 1) rotate(-280.000000) translate(-44.266994, -38.433158) " points="48.742513 29.4235677 45.5338375 25.5114813 43.1466105 28.0338053 39.0083914 35.7394561 40.0845308 46.4481811 43.2533511 51.3548345 44.5035345 51.1486597 49.5255958 35.9591276"></polygon>
                                <polyline id="Path-21-Copy-6" transform="translate(32.406403, 45.483353) rotate(7.000000) translate(-32.406403, -45.483353) " points="30.1831242 56.5541032 28.9286596 50.108353 32.4660053 42.7780274 35.3056228 34.4337832 35.8841454 34.412603 34.0170267 44.1111423"></polyline>
                                <polygon id="Path-21-Copy-5" transform="translate(27.208750, 54.217924) rotate(-13.000000) translate(-27.208750, -54.217924) " points="25.2208218 76.4594484 18.887507 73.841932 27.3852926 49.189845 32.836576 31.9763998 35.5299924 32.2840062 30.6080221 50.4496406"></polygon>
                            </g>
                        </g>
                        <g id="Group" transform="translate(180.447621, 905.160773)" fill="#B45251">
                            <polygon id="Path-4" transform="translate(48.767293, 24.051351) rotate(-280.000000) translate(-48.767293, -24.051351) " points="62.4896666 -8.10525153 52.6515585 -22.0680847 45.3320908 -13.0655256 32.6439128 14.4371178 35.9434598 52.6581913 45.6593678 70.1707861 49.4925505 69.434917 64.8906736 15.2211589"></polygon>
                            <polygon id="Path-4" transform="translate(33.595881, 55.428996) rotate(-280.000000) translate(-33.595881, -55.428996) " points="38.0714006 46.4194063 34.862725 42.5073199 32.475498 45.0296439 28.3372789 52.7352946 29.4134183 63.4440196 32.5822386 68.350673 33.832422 68.1444983 38.8544833 52.9549661"></polygon>
                            <polyline id="Path-21-Copy-6" transform="translate(45.456472, 62.479192) scale(-1, 1) rotate(7.000000) translate(-45.456472, -62.479192) " points="43.2331938 73.5499418 41.9787293 67.1041916 45.516075 59.7738659 48.3556924 51.4296217 48.9342151 51.4084415 47.0670963 61.1069809"></polyline>
                            <polygon id="Path-21-Copy-5" transform="translate(50.654125, 60.543891) scale(-1, 1) rotate(-13.000000) translate(-50.654125, -60.543891) " points="48.6661972 82.7854153 42.3328823 80.167899 50.8306679 55.515812 56.2819514 38.3023668 58.9753677 38.6099731 54.0533975 56.7756075"></polygon>
                        </g>
                        <polygon id="Path-21-Copy" fill="#BD5958" transform="translate(1660.876767, 761.061508) scale(-1, 1) translate(-1660.876767, -761.061508) " points="1356.27373 1365.63157 1965.47981 1365.63157 1870.29831 1096.11213 1849.79522 975.333001 1755.48102 559.770914 1717.55031 507.569765 1666.7451 203.630815 1583.25508 156.49145 1466.38748 172.868281 1356.27373 346.447813 1402.67203 539.417842"></polygon>
                        <polygon id="Path-21-Copy-2" fill="#BD5958" transform="translate(2187.218240, 770.062476) scale(-1, 1) translate(-2187.218240, -770.062476) " points="1856.56753 1365.63157 2409.79282 1365.63157 2517.86895 174.493385 2290.40077 538.147755 2140.73338 628.18869 2004.58114 618.998429 1856.56753 752.082318"></polygon>
                        <g id="Group-4" transform="translate(2183.443375, 510.375524)" fill="#B45251">
                            <polygon id="Path-4" transform="translate(68.555265, 39.642699) scale(-1, 1) rotate(-280.000000) translate(-68.555265, -39.642699) " points="96.6929406 19.6247787 90.9755314 -19.7237504 64.0695537 -24.4665399 40.4175894 25.1817865 41.9959625 73.358109 68.706871 103.423486 78.2510529 103.751937"></polygon>
                            <polyline id="Path-21-Copy-6" transform="translate(66.092137, 72.311533) rotate(38.000000) translate(-66.092137, -72.311533) " points="59.8591858 99.1245655 57.1519604 90.940279 65.8026713 70.5953138 73.7051979 45.5475086 75.032314 45.4984996 68.6743005 71.7437467"></polyline>
                            <polyline id="Path-21-Copy-5" points="51.5504439 116.716811 41.6996695 116.716811 45.7187728 83.8498389 54.0670162 56.7428448 56.1439348 56.678093 51.5504439 83.8498389"></polyline>
                        </g>
                        <g id="Group-6" transform="translate(1284.781247, 893.801820)">
                            <polygon id="Path-29" fill="#B45251" points="184.989389 82.8586451 28.6613519 86.6529842 21.5573523 94.7734294 90.70722 122.577258 164.958833 145.607177 233.888452 184.270252 416.778828 282.808544 723.604291 471.941743 1233.08771 471.941743 1233.08771 113.035327 637.672573 94.7734294"></polygon>
                            <polygon id="Path-29-Copy" fill="#D96A69" points="35.9095139 80.6196253 28.6438322 86.5840144 53.2069921 92.2025548 105.513893 95.7310102 186.81144 107.026066 200.622993 127.778981 410.136351 140.41345 1233.08771 140.41345 1233.08771 80.6196253"></polygon>
                            <g id="Group-4-Copy-2" transform="translate(55.450443, 44.287874) scale(-1, 1) translate(-55.450443, -44.287874) translate(0.450443, 0.287874)" fill="#B45251">
                                <g id="Group-17-Copy-2" transform="translate(55.113551, 29.649947) scale(-1, 1) rotate(-280.000000) translate(-55.113551, -29.649947) translate(35.113551, -22.350053)">
                                    <polygon id="Path-4" points="39.1729668 51.045003 33.0523978 0.52919211 9.95429818 27.3883572 0.737465093 54.5929836 6.4549297 87.3675152 7.47994727 103.323199 19.5117456 97.7013092"></polygon>
                                </g>
                                <polygon id="Path-21-Copy-6" transform="translate(47.615380, 52.380700) rotate(20.000000) translate(-47.615380, -52.380700) " points="46.3305758 70.6110265 42.8390004 62.9881545 45.0556785 48.6701383 51.3575885 34.1885639 52.3917588 34.1503731 46.9029127 49.2737142"></polygon>
                                <polygon id="Path-21-Copy-5" points="39.6002874 87.8179701 32.4003767 87.6664701 37.3168181 63.3119662 38.7409634 36.5630611 40.3594258 36.5126025 40.8188659 64.4943674"></polygon>
                            </g>
                            <polygon id="Path-4-Copy-3" fill="#B75554" transform="translate(267.681005, 54.451830) rotate(-90.000000) translate(-267.681005, -54.451830) " points="281.515334 72.3464968 292.729962 51.7550108 274.109995 40.1830764 242.632048 33.8943293 242.929884 75.0093312"></polygon>
                            <polygon id="Path-4-Copy-4" fill="#B45251" transform="translate(257.290555, 54.454329) rotate(-90.000000) translate(-257.290555, -54.454329) " points="260.069434 61.3840457 282.342015 62.1317184 263.722047 50.559784 232.244101 44.2710369 232.239095 64.6376214"></polygon>
                        </g>
                        <g id="Group-10" transform="translate(278.949076, 444.221541)">
                            <polygon id="Path-21" fill="#BD5958" transform="translate(442.782323, 460.761011) scale(-1, 1) translate(-442.782323, -460.761011) " points="79.4723197 921.522022 844.91204 921.522022 652.322709 364.451916 335.897073 147.391479 248.863066 0 158.657488 35.8243179 79.4723197 243.133568 40.6526059 599.801436"></polygon>
                            <polygon id="Path-30-Copy" fill="#B45251" points="723.276027 404.964085 806.110097 243.273757 845.110776 599.419535 825.101834 921.522022 450.096024 921.522022 374.855827 534.655819"></polygon>
                            <g id="Group-4" transform="translate(733.141101, 20.471039)" fill="#B45251">
                                <g id="Group-17-Copy-2" transform="translate(65.112983, 30.724222) scale(-1, 1) rotate(-280.000000) translate(-65.112983, -30.724222) translate(45.112983, -31.275778)">
                                    <polyline id="Path-4" points="39.5980335 39.3485291 33.8806243 -5.70210545e-13 16.3494435 9.65645477 12.6501764 57.5185627 -5.77315973e-13 90.1663208 11.6119639 123.147236 21.1561458 123.475688"></polyline>
                                </g>
                                <polyline id="Path-21-Copy-6" transform="translate(61.538374, 54.528413) rotate(38.000000) translate(-61.538374, -54.528413) " points="55.3054224 81.3414462 52.598197 73.1571596 61.248908 52.8121945 69.1514345 27.7643893 70.4785506 27.7153803 64.1205371 53.9606274"></polyline>
                                <polyline id="Path-21-Copy-5" points="27.844432 109.746958 23.6076611 98.9336916 37.1459061 72.0534585 49.5132528 38.9597255 51.5901714 38.8949737 41.6399668 73.5707943"></polyline>
                            </g>
                            <polygon id="Path-2" fill="#C76564" points="402.914556 527.709288 231.518667 379.581461 0.28083455 919.979892 458.100891 919.979892"></polygon>
                        </g>
                        <polygon id="Path-4" fill="#B45251" transform="translate(2442.329160, 778.058115) scale(-1, 1) rotate(-280.000000) translate(-2442.329160, -778.058115) " points="2456.05153 750.057591 2446.21343 737.899384 2438.89396 745.738408 2426.20578 769.686473 2429.50533 802.967667 2439.22124 818.216847 2443.05442 817.576085 2458.45254 770.369181"></polygon>
                        <polygon id="Path-4" fill="#B45251" transform="translate(2405.442407, 804.098320) scale(-1, 1) rotate(-280.000000) translate(-2405.442407, -804.098320) " points="2409.91793 795.088729 2406.70925 791.176643 2404.32202 793.698967 2400.1838 801.404618 2401.25994 812.113343 2404.42876 817.019996 2405.67895 816.813821 2410.70101 801.624289"></polygon>
                        <polyline id="Path-21-Copy-6" fill="#B45251" transform="translate(2413.741279, 811.148515) rotate(7.000000) translate(-2413.741279, -811.148515) " points="2411.518 822.219265 2410.26354 815.773515 2413.80088 808.443189 2416.6405 800.098945 2417.21902 800.077765 2415.3519 809.776304"></polyline>
                        <polygon id="Path-21-Copy-5" fill="#B45251" transform="translate(2428.625932, 814.548150) rotate(-13.000000) translate(-2428.625932, -814.548150) " points="2426.638 836.789674 2420.30469 834.172158 2428.80247 809.520071 2434.25376 792.306626 2436.94717 792.614232 2432.0252 810.779867"></polygon>
                    </g>
                </g>
            </g>
        </g>
    </g>
</svg>
