<svg xmlns="http://www.w3.org/2000/svg" xmlns:xlink="http://www.w3.org/1999/xlink" width="394" height="125" viewBox="0 0 394 125">
    <defs>
        <path id="a" d="M0 47.216l10.915 25.13s-7.247 12.57-8.69 16.12c-1.445 3.55-.932 26.688-.932 26.688s-.499-.89-1.293-2.285V47.216zM44.637 0l37.026 18.246L65.15 39.162 35.183 20.425l28.67 28.742-20.314 27.88s.897 3.428-2.399-6.946C37.843 59.727 4.387 13.8 4.387 13.8s21.824 38.547 23.925 44.35c2.101 5.804-9.67 22.876-9.67 22.876L0 36.138V0h44.637zm27.068 0l1.92 1.048 4.381 10.378L47.696 0h24.009z"/>
        <path id="c" d="M178.043 0c-.883 20.744-8.804 124.813-78.822 124.813-39.173 0-62.996-33.346-76.772-64.914l-8.187 12.678s-6.152-9.395-4.105-12.443c2.046-3.047 7.758-6.506 7.758-6.506S8.362 51.9 5.501 52.191c-2.862.291-5.417 3.682-5.417 3.682s-.356-7.56 2.361-8.182c3.595-.823 11.664 1.005 15.886 2.089C13.056 35.867 8.227 15.174 5.059 0h4.093l.152.845c2.601 14.487 6.483 33.295 10.807 44.733.794-.99 3.246-5.051 3.246-5.051s1.481.972 1.811 4.135a10.866 10.866 0 0 1-.577 4.733l.094.229c1.368-1.712 6.001-6.849 12.534-7.093 7.846-.294 13.637 8.418 13.637 8.418l-.035-.012c-.664-.234-10.497-3.682-13.403-3.509-3.009.179-8.624 3.805-8.624 3.805s9.381-1.013 14.577 2.969c3.612 2.768 4.064 10.909 4.064 10.909s-5.881-3.545-10.817-5.691c-3.069-1.333-10.146-3.002-12.473-3.683 13.795 30.399 37.756 67.722 74.074 66.629 60.916-1.83 73.301-102.04 74.25-122.367h5.574z"/>
        <path id="e" d="M143.067 0c-11.848 38.183-37.966 104.966-75.698 104.966-26.616 0-42.803-34.276-52.163-66.726L9.643 51.272s-4.18-9.658-2.79-12.79c1.392-3.133 5.273-6.688 5.273-6.688s-6.491-1.776-8.435-1.478c-1.944.3-3.68 3.785-3.68 3.785s-.243-7.77 1.604-8.41c2.442-.846 7.925 1.033 10.792 2.148C9.909 17.873 8.07 8.123 6.76 0h2.48c.97 7.214 2.374 15.506 4.377 23.52.539-1.018 2.206-5.192 2.206-5.192l.01.012c.109.118 1.008 1.183 1.219 4.238a16.527 16.527 0 0 1-.391 4.866l.064.234c.929-1.759 4.077-7.039 8.516-7.29 5.33-.302 9.266 8.653 9.266 8.653s-7.086-3.803-9.131-3.619c-2.044.183-5.86 3.911-5.86 3.911s6.374-1.04 9.905 3.051c2.454 2.846 2.76 11.215 2.76 11.215s-3.996-3.644-7.348-5.85c-2.086-1.37-6.894-3.087-8.475-3.786 9.372 31.248 25.63 68.865 50.329 68.49 36.916-.564 61.988-65.08 73.134-102.453h3.245z"/>
    </defs>
    <g fill="none" fill-rule="evenodd">
        <mask id="b" fill="#fff">
            <use xlink:href="#a"/>
        </mask>
        <path fill="#192032" d="M-40-55h174.058v175.154H-40z" mask="url(#b)"/>
        <g transform="translate(215)">
            <mask id="d" fill="#fff">
                <use xlink:href="#c"/>
            </mask>
            <path fill="#177740" d="M-4.931-24.64h188.084v154.453H-4.931z" mask="url(#d)"/>
        </g>
        <g transform="translate(148)">
            <mask id="f" fill="#fff">
                <use xlink:href="#e"/>
            </mask>
            <path fill="#10484B" d="M-5-31.001h160.27v140.967H-5z" mask="url(#f)"/>
        </g>
    </g>
</svg>
