<svg xmlns="http://www.w3.org/2000/svg" xmlns:xlink="http://www.w3.org/1999/xlink" width="420" height="199" viewBox="0 0 420 199">
    <defs>
        <path id="a" d="M.669 0H73v198.327H.669z"/>
        <path id="c" d="M.039 0H77v195.494H.039z"/>
        <path id="e" d="M94 0v5.656L80.183 18.278s-13.132 9.286-32.462 15.573l-.588.19c-10.08 3.224-26.876-.143-26.876-.143l3.992-15.484-8.918 13.881s-1.63-.822-2.776-1.995-2.498-2.804-2.498-2.804l2.285-5.51-5.123 3.11S4.7 23.05 2.812 20.15C.928 17.248 0 12.731 0 12.731s18.306 1.032 39.55-7.649C43.053 3.651 46.46 1.91 49.707 0H94z"/>
        <path id="g" d="M36.006.04l8.272 11.112s1.447 10.454-1.64 17.097c-3.087 6.643-6.559 8.304-6.559 8.304l-.077-.077c-.406-.421-2.287-2.575-2.287-6.323 0-.687.044-1.475.118-2.313l.011-.129-.033.158c-.493 2.28-1.093 4.37-1.785 5.51-2.074 3.418-6.126 4.884-6.126 4.884s-1.395-2.565-1.078-6.625l.024-.275-.05.11c-.732 1.573-1.611 2.958-2.659 3.907-4.582 4.153-5.69 4.104-5.69 4.104s-2.848-3.468 0-10.063l.118-.272-.184.179c-1.176 1.12-2.417 2-3.649 2.39-5.258 1.66-5.5.927-5.5.927s.242-6.008 4.39-9.183a901.525 901.525 0 0 1 7.81-5.907c.004-.004-6.363 4.392-9.98 5.418-3.618 1.026-9.406.293-9.406.293S2 17.942 8.946 11.152C15.89 4.362 36.005.04 36.005.04zm-7.935 18.683s-1.978 5.911-2.99 11.04a16.23 16.23 0 0 0-.232 1.575l-.003.025.085-.187c2.321-5.184 3.11-12.183 3.14-12.445v-.008zm-4.679.733s-4.1 3.37-6.946 9.965l.119-.272.05-.048c3.66-3.606 6.65-9.397 6.773-9.637l.004-.008zm11.962-1.466s-1.097 5.33-1.496 9.57l-.014.151.037-.169c.92-4.373 1.447-9.305 1.472-9.543l.001-.009z"/>
        <path id="i" d="M54.849.093l5.138 2.538L73 1.185v9.948l-4.036-.627L73 13.069v15.655l-7.62-7.348 2.586 5.046 3.208 5.386s-1.72 8.752-6.01 17.049c0 0-9.622-20.47-12.678-22.278l-2.501-14.166 1.4 19.514 12.299 21.206-3.04 4.86s-5.864-2.094-12.976.914l-10.31-20.082-1.982-16.721 1.868 35.542-13.271 4.697 1.4-38.783-4.37 21.579-.011 16.036-2.17 4.663-7.812-7.583 9.276-31.063S8.49 47.485 9.764 56.878L3.42 63.703l2.244-13.87L.309 54.48l10.85-19.983 6.177-8.488-5.664 3.459-3.242 1.989-7.72 7.295 9.692-14.185 8.22-5.021 8.844-8.406 6.862-6.194L48.32 4.08 54.849.093z"/>
        <path id="k" d="M15.313 0C30.7 19.026 47.224 36.584 65.157 51.724c20.858 17.608 43.818 31.872 68.243 39.674 22.97 7.335 46.819 8.78 70.249 4.362 54.265-10.235 102.1-50.596 142.306-95.762h13.075c-.286.752-.757 1.535-1.45 2.328-26.315 30.151-55.191 57.453-87.253 77.23-23.858 14.718-49.51 25.031-76.005 28.478-24.816 3.229-49.897-.055-73.782-8.994C73.81 81.551 33.966 43.604.056-.001h15.257z"/>
        <path id="m" d="M3.284.688c1.236.538 2.475 1.058 3.72 1.565L3.938 13.428c-1.042-.402-2.084-.804-3.12-1.226L3.284.688z"/>
        <path id="o" d="M7.17.964c1.16.72 2.325 1.429 3.494 2.123a485.967 485.967 0 0 0-6.23 10.03 217.089 217.089 0 0 1-3.828-2.289L7.17.964z"/>
        <path id="q" d="M1.528.783c.624.209 1.245.43 1.873.632.53.17 1.064.319 1.596.482l-.492 11.694c-1.23-.34-2.454-.702-3.678-1.072L1.528.782z"/>
        <path id="s" d="M5.505.038C7.002.235 8.502.41 10 .56L4.122 11.121c-1.27-.158-2.54-.342-3.808-.53L5.505.037z"/>
        <path id="u" d="M5.689.008c.998.884 2.01 1.745 3.017 2.614L3.69 14.176a280.465 280.465 0 0 1-2.976-2.53L5.689.008z"/>
        <path id="w" d="M4.36.165a252.961 252.961 0 0 0 4.634 3.494l-5.437 10.84c-1.023-.733-2.047-1.462-3.063-2.212A3455.65 3455.65 0 0 1 4.36.165z"/>
        <path id="y" d="M3.978.905l6.193 8.134c-.943.867-1.881 1.741-2.83 2.595L.062 4.494A398.714 398.714 0 0 0 3.978.905z"/>
        <path id="A" d="M6.388.364a441.975 441.975 0 0 0 5.944 6.907l-7.183 10a454.486 454.486 0 0 1-4.58-5.255L6.39.365z"/>
        <path id="C" d="M7.74.81a368.288 368.288 0 0 0 4.495 4.594l-8.152 8.868a357.04 357.04 0 0 1-3.447-3.509L7.74.81z"/>
        <path id="E" d="M2.162.179c1.372.048 2.747.072 4.12.08l-2.7 10.975A148.391 148.391 0 0 1 .05 11.15L2.162.179z"/>
        <path id="G" d="M3.97.33l6.678 7.786a497.84 497.84 0 0 1-3.365 3.302L.893 3.385A442.851 442.851 0 0 0 3.97.33z"/>
        <path id="I" d="M6.037.752L3.863 11.808a152.4 152.4 0 0 1-3.813.245L1.986 1.04a141.07 141.07 0 0 0 4.05-.286z"/>
        <path id="K" d="M6.194.031l7.229 7.164a344.02 344.02 0 0 1-4.685 3.685L.9 4.185A320.197 320.197 0 0 0 6.194.031z"/>
        <path id="M" d="M4.992.101l-1.118 10.99c-1.223.252-2.447.488-3.674.711L.974.892c.225-.04.45-.074.675-.117A146.43 146.43 0 0 0 4.992.101z"/>
        <path id="O" d="M4.351.66l1.321 10.442c-1.244.494-2.49.976-3.741 1.443L.061 2.327A175.061 175.061 0 0 0 4.351.66z"/>
        <path id="Q" d="M5.461.899l.697 11.146a230.59 230.59 0 0 1-3.493 1.871L.255 3.774A223.414 223.414 0 0 0 5.461.899z"/>
        <path id="S" d="M4.63.467l6.275 7.889c-1.8 1.217-3.61 2.412-5.43 3.582L.412 3.242A244.64 244.64 0 0 0 4.63.467z"/>
    </defs>
    <g fill="none" fill-rule="evenodd">
        <g transform="translate(347)">
            <mask id="b" fill="#fff">
                <use xlink:href="#a"/>
            </mask>
            <path stroke="#092823" stroke-width=".865" d="M.669-97.975S17.422 196.93 47.892 198.32C78.36 199.71 90.999-22.09 90.999-22.09" mask="url(#b)"/>
        </g>
        <g transform="translate(343)">
            <mask id="d" fill="#fff">
                <use xlink:href="#c"/>
            </mask>
            <path stroke="#092823" stroke-width=".865" d="M.039-95.815s18.21 289.91 48.679 291.302c30.469 1.391 41.856-219.133 41.856-219.133" mask="url(#d)"/>
        </g>
        <g transform="translate(326)">
            <mask id="f" fill="#fff">
                <use xlink:href="#e"/>
            </mask>
            <path fill="#192032" d="M-5-28.657h109.295v69.095H-5z" mask="url(#f)"/>
        </g>
        <g transform="translate(371 42)">
            <mask id="h" fill="#fff">
                <use xlink:href="#g"/>
            </mask>
            <path fill="#192032" d="M-4.954-4.96h54.571v49.444h-54.57z" mask="url(#h)"/>
        </g>
        <g transform="translate(347 10)">
            <mask id="j" fill="#fff">
                <use xlink:href="#i"/>
            </mask>
            <path fill="#034754" d="M-4.691-11.131h152.605v81.969H-4.691z" mask="url(#j)"/>
        </g>
        <g>
            <mask id="l" fill="#fff">
                <use xlink:href="#k"/>
            </mask>
            <path fill="#1C4437" d="M-26.401-41.412h390.78V114.25h-390.78z" mask="url(#l)"/>
        </g>
        <g transform="translate(115 85)">
            <mask id="n" fill="#fff">
                <use xlink:href="#m"/>
            </mask>
            <path fill="#1B7A4D" d="M-4.18-4.312h16.183v22.74H-4.18z" mask="url(#n)"/>
        </g>
        <g transform="translate(87 72)">
            <mask id="p" fill="#fff">
                <use xlink:href="#o"/>
            </mask>
            <path fill="#1B7A4D" d="M-4.394-4.037h20.058v22.154H-4.394z" mask="url(#p)"/>
        </g>
        <g transform="translate(130 90)">
            <mask id="r" fill="#fff">
                <use xlink:href="#q"/>
            </mask>
            <path fill="#1B7A4D" d="M-4.173-4.216h14.17v22.808h-14.17z" mask="url(#r)"/>
        </g>
        <g transform="translate(153 97)">
            <mask id="t" fill="#fff">
                <use xlink:href="#s"/>
            </mask>
            <path fill="#1B7A4D" d="M-4.686-4.962H15v21.083H-4.688z" mask="url(#t)"/>
        </g>
        <g transform="translate(54 47)">
            <mask id="v" fill="#fff">
                <use xlink:href="#u"/>
            </mask>
            <path fill="#1B7A4D" d="M-4.285-4.992h17.99v24.168h-17.99z" mask="url(#v)"/>
        </g>
        <g transform="translate(70 59)">
            <mask id="x" fill="#fff">
                <use xlink:href="#w"/>
            </mask>
            <path fill="#1B7A4D" d="M-4.506-4.835h18.5v24.334h-18.5z" mask="url(#x)"/>
        </g>
        <g transform="translate(309 33)">
            <mask id="z" fill="#fff">
                <use xlink:href="#y"/>
            </mask>
            <path fill="#1B7A4D" d="M-4.938-4.095h20.109v20.73H-4.938z" mask="url(#z)"/>
        </g>
        <g transform="translate(15 7)">
            <mask id="B" fill="#fff">
                <use xlink:href="#A"/>
            </mask>
            <path fill="#1B7A4D" d="M-4.43-4.636h21.762v26.907H-4.43z" mask="url(#B)"/>
        </g>
        <g transform="translate(32 27)">
            <mask id="D" fill="#fff">
                <use xlink:href="#C"/>
            </mask>
            <path fill="#1B7A4D" d="M-4.364-4.19h21.599v23.462h-21.6z" mask="url(#D)"/>
        </g>
        <g transform="translate(170 98)">
            <mask id="F" fill="#fff">
                <use xlink:href="#E"/>
            </mask>
            <path fill="#1B7A4D" d="M-4.95-4.821h16.233v21.055H-4.95z" mask="url(#F)"/>
        </g>
        <g transform="translate(321 22)">
            <mask id="H" fill="#fff">
                <use xlink:href="#G"/>
            </mask>
            <path fill="#1B7A4D" d="M-4.107-4.67h19.755v21.088H-4.107z" mask="url(#H)"/>
        </g>
        <g transform="translate(183 97)">
            <mask id="J" fill="#fff">
                <use xlink:href="#I"/>
            </mask>
            <path fill="#1B7A4D" d="M-4.95-4.247h15.987v21.3H-4.95z" mask="url(#J)"/>
        </g>
        <g transform="translate(287 51)">
            <mask id="L" fill="#fff">
                <use xlink:href="#K"/>
            </mask>
            <path fill="#1B7A4D" d="M-4.1-4.969h22.523v20.85H-4.1z" mask="url(#L)"/>
        </g>
        <g transform="translate(202 95)">
            <mask id="N" fill="#fff">
                <use xlink:href="#M"/>
            </mask>
            <path fill="#1B7A4D" d="M-4.8-4.899H9.992v21.701H-4.8z" mask="url(#N)"/>
        </g>
        <g transform="translate(230 86)">
            <mask id="P" fill="#fff">
                <use xlink:href="#O"/>
            </mask>
            <path fill="#1B7A4D" d="M-4.939-4.34h15.611v21.885H-4.939z" mask="url(#P)"/>
        </g>
        <g transform="translate(253 74)">
            <mask id="R" fill="#fff">
                <use xlink:href="#Q"/>
            </mask>
            <path fill="#1B7A4D" d="M-4.745-4.101h15.903v23.017H-4.745z" mask="url(#R)"/>
        </g>
        <g transform="translate(269 65)">
            <mask id="T" fill="#fff">
                <use xlink:href="#S"/>
            </mask>
            <path fill="#1B7A4D" d="M-4.587-4.533h20.492v21.47H-4.587z" mask="url(#T)"/>
        </g>
    </g>
</svg>
