<svg xmlns="http://www.w3.org/2000/svg" xmlns:xlink="http://www.w3.org/1999/xlink" width="169" height="240" viewBox="0 0 169 240">
    <defs>
        <path id="ylo8ltymxa" d="M0 0H169V240H0z"/>
        <path id="0sp7je6wrc" d="M0.024 0.049L72.367 0.049 72.367 55 0.024 55z"/>
    </defs>
    <g fill="none" fill-rule="evenodd">
        <g>
            <mask id="40z8gg0c6b" fill="#fff">
                <use xlink:href="#ylo8ltymxa"/>
            </mask>
            <g mask="url(#40z8gg0c6b)">
                <g>
                    <path fill="#F7A491" d="M96.5 177c48.877 0 88.5-39.623 88.5-88.5S145.377 0 96.5 0 8 39.623 8 88.5 47.623 177 96.5 177z" transform="translate(1 102)"/>
                    <g>
                        <g>
                            <path fill="#636889" d="M51.745 103.15H34.46s-2.602-10.418 8.29-10.892c10.888-.473 8.995 10.892 8.995 10.892" transform="translate(1 102) translate(0 36)"/>
                            <path fill="#FFE99C" d="M82.392 89.729c14.198 19.523 27.51 31.946 24.847 35.05-2.662 3.107-11.092-1.33-18.19-9.316 7.098 8.43 8.873 9.76 4.88 11.094-3.995 1.33-23.073-15.531-30.172-26.624-7.099-11.091-3.105-14.64-3.105-14.64l21.74 4.436z" transform="translate(1 102) translate(0 36)"/>
                            <path fill="#FFC900" d="M75.63 60.89c3.358-3.62 10.34-32.569-14.217-39.031-18.385-4.839-37.738 10.856-29.592 22.365 6.648 9.395-7.313 35.252 9.949 46.65 13.698 9.045 35.794 7.554 41.96-2.727 6.657-11.091-1-16.165-8.1-27.256" transform="translate(1 102) translate(0 36)"/>
                            <path fill="#FFE99C" d="M82.285 94.234c5.982.802 9.876-7.418 8.545-16.735-1.331-9.317-11.535-26.621-23.516-25.734-11.978.888-13.31 16.417-6.655 24.847s16.554 16.94 21.626 17.622" transform="translate(1 102) translate(0 36)"/>
                            <path fill="#636889" d="M39.955 48.925c-.862-7.545-3.268-15.451-6.689-14.907C23.403 33.574 0 42.279 0 62.958c0 4.21 7.374-5.423 14.36-5.423 6.987 0 21.017 3.937 25.482 2.217 1.822-2.353 2.017-8.572.113-10.827z" transform="translate(1 102) translate(0 36)"/>
                            <path fill="#F28771" fill-rule="nonzero" d="M40.044 48.14c.404 0 .731.326.731.73 0 .403-.327.73-.73.73-9.216 0-21.965 3.773-27.11 9.372-.274.297-.736.316-1.033.043-.298-.273-.317-.735-.044-1.032 5.478-5.961 18.602-9.844 28.186-9.844z" transform="translate(1 102) translate(0 36)"/>
                            <path fill="#636889" d="M66.898 103.15H49.614S47.01 92.732 57.9 92.258c10.891-.473 8.998 10.892 8.998 10.892" transform="translate(1 102) translate(0 36)"/>
                            <path fill="#1F2444" d="M45.288 42.13c0 1.624 1.316 2.94 2.939 2.94 1.624 0 2.936-1.316 2.936-2.94 0-1.62-1.312-2.938-2.936-2.938-1.623 0-2.94 1.318-2.94 2.938" transform="translate(1 102) translate(0 36)"/>
                            <path fill="#50A1FF" d="M126.24 100.57c-21.52 4.362-39.659-5.634-50.192-18.574-10.974-13.48-10.683-34.22-.616-39.024 11.82-5.643 24.371 2.917 32.855 18.836 7.466 14.013 12.915 31.17 17.954 38.761" transform="translate(1 102) translate(0 36)"/>
                            <path fill="#50A1FF" d="M118.801 81.054c8.808 17.802 27.916 41.563 43.773 46.258-15.02 6.21-44.229-1.634-62.956-47.934 3.092-16.795 19.183 1.676 19.183 1.676M102.508 7.026c27.585-8.012 51.776 18.442 37.856 22.01-11.06 2.835-5.8-21.944-29.086-17.382-23.286 4.562-8.77-4.628-8.77-4.628" transform="translate(1 102) translate(0 36)"/>
                            <path fill="#7DBCFF" d="M103.24 5.686c29.472-16.441 57.69 7.256 48.228 14.737C140.995 28.705 133.69-.28 112.983 9.462c-21.471 10.103-9.743-3.776-9.743-3.776" transform="translate(1 102) translate(0 36)"/>
                            <g transform="translate(1 102) translate(0 36) translate(93.96 84.655)">
                                <mask id="i84tlx1v0d" fill="#fff">
                                    <use xlink:href="#0sp7je6wrc"/>
                                </mask>
                                <path fill="#50A1FF" d="M23.163 12.008c6.09 16.32 32.884 37.756 49.204 40.436C58.239 60.48 14.639 50.738.024 6.405c.974-17.05 23.14 5.603 23.14 5.603" mask="url(#i84tlx1v0d)"/>
                            </g>
                            <path fill="#636889" d="M98.373 103.15h-14.62S81.548 90.094 90.76 89.5c9.215-.592 7.612 13.65 7.612 13.65" transform="translate(1 102) translate(0 36)"/>
                            <path fill="#7DBCFF" d="M123.214 48.677c9.501-11.691 2.833-46.644-25.089-46.644-24.48 0-26.306 28.134-21.191 37.634-2.924 11.325-6.183 55.019 33.98 56.753 31.056 1.34 23.749-11.448 20.826-26.43-2.925-14.978-8.526-21.313-8.526-21.313" transform="translate(1 102) translate(0 36)"/>
                            <path fill="#50A1FF" d="M159.854 100.57c-21.521 4.362-39.658-5.634-50.193-18.574-10.974-13.48-10.683-34.22-.615-39.024 11.818-5.643 24.371 2.917 32.854 18.836 7.466 14.013 12.916 31.17 17.954 38.761" transform="translate(1 102) translate(0 36)"/>
                            <path fill="#636889" d="M111.894 103.15H97.272s-2.202-13.056 7.01-13.65c9.216-.592 7.612 13.65 7.612 13.65M77.299 38.935c-8.769-1.463-8.81 4.302-12.058 5.845-6.58-.087-10.23-29.229 10.961-27.218.184 1.46 2.56 15.893 1.097 21.373" transform="translate(1 102) translate(0 36)"/>
                            <path fill="#FFC900" fill-rule="nonzero" d="M64.341 44.113c.214-9.434 6.514-14.82 12.948-14.475.403.021.712.366.69.769-.021.403-.366.712-.769.69-5.634-.303-11.213 4.467-11.408 13.05-.009.403-.343.723-.747.714-.403-.01-.723-.344-.714-.748z" transform="translate(1 102) translate(0 36)"/>
                            <path fill="#1F2444" d="M84.12 24.686c0 1.614 1.308 2.923 2.922 2.923s2.922-1.31 2.922-2.923c0-1.614-1.308-2.922-2.922-2.922s-2.922 1.308-2.922 2.922" transform="translate(1 102) translate(0 36)"/>
                        </g>
                    </g>
                </g>
            </g>
        </g>
    </g>
</svg>
