<svg xmlns="http://www.w3.org/2000/svg" xmlns:xlink="http://www.w3.org/1999/xlink" width="160" height="240" viewBox="0 0 160 240">
    <defs>
        <path id="sqryp0umfa" d="M0 0H160V240H0z"/>
    </defs>
    <g fill="none" fill-rule="evenodd">
        <g>
            <mask id="a327g2i5qb" fill="#fff">
                <use xlink:href="#sqryp0umfa"/>
            </mask>
            <g mask="url(#a327g2i5qb)">
                <g>
                    <path fill="#9ACBFF" d="M88.936 192c48.877 0 88.5-39.623 88.5-88.5S137.813 15 88.936 15c-48.878 0-88.5 39.623-88.5 88.5s39.622 88.5 88.5 88.5z" transform="translate(0 89)"/>
                    <g>
                        <g fill="#FFC900">
                            <g>
                                <path fill-rule="nonzero" d="M30.827 14.208c8.69-1.167 17.719 4.444 19.912 12.467 1.405 5.138.688 10.095-1.824 14.777-.739 1.379-1.572 2.72-2.487 3.989-1.698 2.357-2.815 4.947-3.408 7.767-.333 1.59-1.25 2.46-2.859 2.748-4.47.802-8.933 1.65-13.397 2.477-.21.039-.423.07-.638.09-1.276.113-2.219-.573-2.41-1.753-.185-1.134.526-2.133 1.79-2.374 4.146-.789 8.292-1.575 12.449-2.291.814-.141 1.128-.488 1.314-1.236.656-2.611 1.76-5.024 3.305-7.247 1.585-2.28 3.136-4.587 3.955-7.288 2.477-8.17-1.668-15.534-9.984-17.586-5.471-1.35-10.245.19-14.17 4.05-3.706 3.642-4.06 8.216-2.947 13.018.646 2.794 2.376 5.047 3.802 7.462 1.242 2.103 2.271 4.334 3.283 6.56.42.925.07 1.84-.814 2.427-.842.56-1.715.507-2.48-.132-.309-.26-.506-.674-.702-1.043-1.035-1.98-1.916-4.053-3.109-5.931-2.019-3.18-3.929-6.378-4.487-10.176-.15-1.015-.207-2.05-.306-3.076-.04-11.434 8.884-16.716 16.212-17.699z" transform="translate(0 89) translate(21) translate(.78 .653) translate(.826 .234) rotate(-15.566 33.032 36.295)"/>
                                <path d="M22.645 50.89l-4.543-12.803-1.239-11.977 5.782-7.435 14.043-2.478 8.26 4.543 4.13 5.37v14.042L42.884 48l-2.478 4.956-16.52 3.717c0-1.239-.248-4.13-1.24-5.782z" transform="translate(0 89) translate(21) translate(.78 .653) translate(.826 .234) rotate(-15.731 32.97 36.435)"/>
                                <path fill-rule="nonzero" d="M48.106 58.818c.13 1.13-.525 2.082-1.736 2.323-2.527.502-5.064.943-7.597 1.404-1.372.25-2.74.535-4.122.725-1.122.154-2.08-.59-2.282-1.648-.214-1.133.402-2.225 1.547-2.447 3.934-.759 7.88-1.456 11.82-2.174.073-.01.146-.008.217-.013 1.12-.01 2.03.761 2.153 1.83z" transform="translate(0 89) translate(21) translate(.78 .653) translate(.826 .234) rotate(-15.566 40.225 60.14)"/>
                                <path fill-rule="nonzero" d="M26.857 9.545c-.026 1.248-.802 2.09-1.923 2.13-1.158.041-2.054-.81-2.075-2.092-.037-2.237-.039-4.475.006-6.713.024-1.22.922-2.054 2.032-2.03 1.12.023 1.932.872 1.957 2.1.024 1.135.005 2.273.007 3.407 0 1.067.017 2.131-.004 3.198z" transform="translate(0 89) translate(21) translate(.78 .653) translate(.826 .234) rotate(-15.566 24.85 6.258)"/>
                                <path fill-rule="nonzero" d="M8.122 24.495c-1.555-1.462-3.072-2.97-4.58-4.482-.885-.892-.924-2.044-.155-2.854.802-.842 2.02-.852 2.954.039 1.57 1.5 3.111 3.033 4.653 4.56.638.634.96 1.446.46 2.217-.378.59-1.072.981-1.663 1.488-.717-.406-1.276-.6-1.669-.968z" transform="translate(0 89) translate(21) translate(.78 .653) translate(.826 .234) rotate(-15.566 7.27 20.996)"/>
                                <path fill-rule="nonzero" d="M61.782 24.35c1.23.041 2.094.881 2.096 1.977 0 1.108-.846 1.969-2.081 1.99-2.103.037-4.209.034-6.312 0-1.252-.021-2.084-.85-2.088-1.968-.004-1.124.818-1.95 2.064-1.994 1.07-.039 2.142-.011 3.214-.011 1.036 0 2.073-.028 3.107.006z" transform="translate(0 89) translate(21) translate(.78 .653) translate(.826 .234) rotate(-15.566 58.638 26.339)"/>
                                <path fill-rule="nonzero" d="M43.2 12.942c-.23-.59-.199-1.616.182-2.045 1.557-1.76 3.26-3.396 4.977-5.008.784-.735 1.992-.577 2.711.188.694.74.772 1.847.033 2.618-1.58 1.648-3.21 3.251-4.866 4.824-.335.319-.875.421-1.528.716-.524-.419-1.3-.748-1.51-1.293z" transform="translate(0 89) translate(21) translate(.78 .653) translate(.826 .234) rotate(-15.566 47.34 9.824)"/>
                                <path fill-rule="nonzero" d="M9.07 39.022c1.188.028 2.065.878 2.08 1.968.015 1.22-.696 1.996-1.998 1.999-2.172.004-4.348-.041-6.518-.137C1.422 42.796.715 42.02.739 40.97c.024-1.052.861-1.9 2.015-1.95 1.068-.044 2.14-.01 3.21-.01l.002.006c1.035 0 2.069-.019 3.104.005z" transform="translate(0 89) translate(21) translate(.78 .653) translate(.826 .234) rotate(-15.566 5.944 40.994)"/>
                                <path fill-rule="nonzero" d="M46.956 64.994c.172 1.094-.421 2.116-1.521 2.353-1.882.406-3.779.755-5.68 1.047-1.12.171-2.09-.574-2.305-1.611-.226-1.077.335-2.105 1.405-2.432.644-.197 1.323-.285 1.989-.406 1.33-.246 2.664-.483 3.787-.686 1.307 0 2.164.705 2.325 1.735z" transform="translate(0 89) translate(21) translate(.78 .653) translate(.826 .234) rotate(-15.566 42.193 65.839)"/>
                                <path fill-rule="nonzero" d="M58.715 49.237c-.588.224-1.602.147-2.06-.235-1.444-1.212-2.75-2.597-4.037-3.98-.676-.729-.562-1.836.097-2.535.666-.705 1.906-.895 2.634-.227 1.444 1.328 2.81 2.74 4.166 4.158.249.256.296.703.539 1.335-.406.481-.763 1.266-1.339 1.484z" transform="translate(0 89) translate(21) translate(.78 .653) translate(.826 .234) rotate(-15.566 56.108 45.604)"/>
                                <path fill-rule="nonzero" d="M21.378 55.894c-1.136 1.226-2.322 2.406-3.519 3.575-.926.904-2.13.917-2.947.088-.793-.806-.776-1.943.099-2.853 1.181-1.234 2.384-2.448 3.602-3.645.643-.632 1.48-.876 2.247-.397.568.353.946 1.007 1.461 1.586-.393.7-.58 1.252-.943 1.646z" transform="translate(0 89) translate(21) translate(.78 .653) translate(.826 .234) rotate(-15.566 18.328 56.287)"/>
                            </g>
                        </g>
                        <g>
                            <g fill="#7DBCFF">
                                <path d="M15.225 65.973c8.408 0 15.224-6.816 15.224-15.224 0-8.408-6.816-15.225-15.224-15.225C6.816 35.524 0 42.341 0 50.75s6.816 15.224 15.225 15.224z" transform="translate(0 89) translate(21) translate(18.265 69.308)"/>
                                <path d="M22.39 44.181c8.408 0 15.224-6.816 15.224-15.225 0-8.408-6.816-15.224-15.224-15.224-8.409 0-15.225 6.816-15.225 15.224 0 8.409 6.816 15.225 15.225 15.225z" transform="translate(0 89) translate(21) translate(18.265 69.308)"/>
                                <path d="M41.195 30.45c8.408 0 15.225-6.817 15.225-15.225C56.42 6.816 49.603 0 41.195 0S25.97 6.816 25.97 15.225c0 8.408 6.817 15.224 15.225 15.224z" transform="translate(0 89) translate(21) translate(18.265 69.308)"/>
                                <path d="M64.78 30.45c8.409 0 15.225-6.817 15.225-15.225C80.005 6.816 73.189 0 64.78 0c-8.408 0-15.224 6.816-15.224 15.225 0 8.408 6.816 15.224 15.224 15.224z" transform="translate(0 89) translate(21) translate(18.265 69.308)"/>
                                <path d="M83.287 44.181c8.409 0 15.225-6.816 15.225-15.225 0-8.408-6.816-15.224-15.225-15.224-8.408 0-15.224 6.816-15.224 15.224 0 8.409 6.816 15.225 15.224 15.225z" transform="translate(0 89) translate(21) translate(18.265 69.308)"/>
                                <path d="M89.858 65.973c8.408 0 15.225-6.816 15.225-15.224 0-8.408-6.817-15.225-15.225-15.225S74.633 42.341 74.633 50.75s6.817 15.224 15.225 15.224z" transform="translate(0 89) translate(21) translate(18.265 69.308)"/>
                                <path d="M90.005 65.973l-2.538-29.852-25.076-20.747-25.822 1.642L19.852 36.12l-4.627 29.852h74.78z" transform="translate(0 89) translate(21) translate(18.265 69.308)"/>
                            </g>
                            <path fill="#DEF0FF" fill-rule="nonzero" d="M21.93 34.263c1.427-1.06 2.684-2.484 3.268-4.373.269-.864-.216-1.784-1.077-2.053-.86-.27-1.78.214-2.049 1.08-.58 1.878-2.454 3.105-3.922 3.802-.52.246-1.027.448-1.488.61-.158-.007-.313-.012-.47-.012-2.81 0-5.472.653-7.836 1.81.195 1.118.493 2.202.884 3.239 2.07-1.128 4.439-1.77 6.955-1.77 3.365 0 6.464 1.149 8.936 3.07.645.5 1.57.433 2.148-.147.692-.697.63-1.85-.143-2.454-1.553-1.206-3.31-2.158-5.207-2.802zM46.715 18.75c-.775-.534-1.152-1.494-.992-2.421.793-4.556 3.295-8.522 6.818-11.214-.916-.701-1.902-1.315-2.946-1.831-3.822 3.29-6.467 7.916-7.21 13.147-.146 1.028-.746 1.946-1.642 2.466-.757.44-1.875.79-3.51.798-.893.003-1.671.687-1.707 1.58-.035.936.711 1.711 1.639 1.711 3.596 0 5.618-1.227 6.718-2.354 1.1 1.127 3.122 2.354 6.715 2.354.928 0 1.674-.772 1.639-1.708-.035-.896-.814-1.58-1.706-1.583-1.896-.011-3.078-.437-3.816-.945zM86.766 33.477c-1.86-2.184-5.034-4.391-10.364-4.813-.91-.076-1.693.6-1.763 1.496-.073.9.602 1.686 1.503 1.756 3.12.247 5.3 1.217 6.826 2.428-1.842.64-3.549 1.57-5.06 2.737-.778.6-.837 1.747-.144 2.44.58.576 1.503.646 2.152.146 2.476-1.91 5.584-3.052 8.955-3.052 2.52 0 4.891.638 6.967 1.756.392-1.03.69-2.108.886-3.217C94.35 34 91.687 33.35 88.868 33.35c-.71 0-1.412.044-2.102.126zM76.721 59.492c-1.276-1.887-2.125-4.085-2.392-6.452-.102-.894-.9-1.548-1.808-1.452-.91.096-1.564.906-1.461 1.803.584 5.192 3.434 9.713 7.543 12.582H88.96c-3.86 0-7.373-1.478-10-3.89 2.506-1.174 5.755-3.662 7.434-8.918.273-.857-.205-1.772-1.074-2.045-.869-.264-1.793.21-2.066 1.066-1.462 4.568-4.309 6.496-6.534 7.306zM28.356 59.492c1.277-1.887 2.125-4.085 2.392-6.452.103-.894.902-1.548 1.809-1.452.91.096 1.565.906 1.462 1.803-.584 5.192-3.435 9.713-7.545 12.582H16.118c3.861 0 7.376-1.478 10.003-3.89-2.507-1.174-5.757-3.662-7.437-8.918-.273-.857.206-1.772 1.072-2.045.866-.264 1.791.21 2.064 1.066 1.462 4.568 4.31 6.496 6.536 7.306z" transform="translate(0 89) translate(21) translate(18.265 69.308)"/>
                        </g>
                        <path fill="#FFC900" fill-rule="nonzero" d="M94.29 31.092l-6.735.358c-.33.018-.613-.236-.63-.567-.003-.04-.001-.078.004-.117l3.524-24.517c.043-.296.296-.515.594-.515h16.382c.331 0 .6.269.6.6 0 .072-.013.144-.039.212l-6.818 18.071c-.117.31.04.656.35.773.067.026.14.039.211.039h7.669c.33 0 .6.269.6.6 0 .118-.035.233-.1.33L94.756 49.268c-.182.277-.555.352-.831.17-.181-.12-.283-.328-.268-.545l1.263-17.156c.024-.331-.224-.619-.555-.643-.025-.002-.05-.002-.076 0z" transform="translate(0 89) translate(21) rotate(30 98.671 28.459)"/>
                    </g>
                </g>
            </g>
        </g>
    </g>
</svg>
